<svg width="516" height="66" viewBox="0 0 516 66" fill="none" xmlns="http://www.w3.org/2000/svg">
<rect width="516" height="66" fill="#F9DEDC"/>
<path d="M69.0801 25.6367V39.5H67.2424V25.6367H69.0801ZM73.917 31.3972V39.5H72.1555V29.1978H73.8218L73.917 31.3972ZM73.498 33.9585L72.7649 33.9299C72.7712 33.2253 72.876 32.5747 73.0791 31.978C73.2822 31.375 73.5679 30.8513 73.936 30.407C74.3042 29.9626 74.7422 29.6199 75.25 29.3787C75.7642 29.1311 76.3323 29.0073 76.9543 29.0073C77.4622 29.0073 77.9192 29.0771 78.3254 29.2168C78.7317 29.3501 79.0776 29.5659 79.3633 29.8643C79.6553 30.1626 79.8774 30.5498 80.0298 31.0259C80.1821 31.4956 80.2583 32.0701 80.2583 32.7493V39.5H78.4873V32.7302C78.4873 32.1907 78.408 31.759 78.2493 31.4353C78.0906 31.1052 77.8589 30.8672 77.5542 30.7212C77.2495 30.5688 76.875 30.4927 76.4307 30.4927C75.9927 30.4927 75.5928 30.5847 75.231 30.7688C74.8755 30.9529 74.5676 31.2068 74.3074 31.5305C74.0535 31.8542 73.8535 32.2256 73.7075 32.6445C73.5679 33.0571 73.498 33.4951 73.498 33.9585ZM87.2471 29.1978V30.5498H81.677V29.1978H87.2471ZM83.5623 26.6936H85.3237V36.9482C85.3237 37.2974 85.3777 37.5608 85.4856 37.7385C85.5935 37.9163 85.7332 38.0337 85.9045 38.0908C86.0759 38.1479 86.26 38.1765 86.4568 38.1765C86.6028 38.1765 86.7551 38.1638 86.9138 38.1384C87.0789 38.1067 87.2026 38.0813 87.2852 38.0623L87.2947 39.5C87.155 39.5444 86.9709 39.5857 86.7424 39.6238C86.5203 39.6682 86.2505 39.6904 85.9331 39.6904C85.5015 39.6904 85.1047 39.6047 84.7429 39.4333C84.3811 39.262 84.0923 38.9763 83.8765 38.5764C83.667 38.1702 83.5623 37.6243 83.5623 36.9387V26.6936ZM93.5884 39.6904C92.8711 39.6904 92.2205 39.5698 91.6365 39.3286C91.0588 39.0811 90.5605 38.7351 90.1416 38.2908C89.729 37.8464 89.4116 37.3196 89.1895 36.7102C88.9673 36.1008 88.8562 35.4343 88.8562 34.7107V34.3108C88.8562 33.4729 88.98 32.7271 89.2275 32.0732C89.4751 31.4131 89.8115 30.8545 90.2368 30.3975C90.6621 29.9404 91.1445 29.5945 91.6841 29.3596C92.2236 29.1248 92.7822 29.0073 93.3599 29.0073C94.0962 29.0073 94.731 29.1343 95.2642 29.3882C95.8037 29.6421 96.2449 29.9976 96.5876 30.4546C96.9304 30.9053 97.1843 31.4385 97.3494 32.0542C97.5144 32.6636 97.5969 33.3301 97.5969 34.0537V34.844H89.9036V33.4062H95.8354V33.2729C95.8101 32.8159 95.7148 32.3716 95.5498 31.9399C95.3911 31.5083 95.1372 31.1528 94.7881 30.8735C94.439 30.5942 93.9629 30.4546 93.3599 30.4546C92.96 30.4546 92.5918 30.5403 92.2554 30.7117C91.9189 30.8767 91.6301 31.1243 91.3889 31.4543C91.1477 31.7844 90.9604 32.1875 90.8271 32.6636C90.6938 33.1396 90.6272 33.6887 90.6272 34.3108V34.7107C90.6272 35.1995 90.6938 35.6597 90.8271 36.0913C90.9668 36.5166 91.1667 36.8911 91.427 37.2148C91.6936 37.5386 92.0142 37.7925 92.3887 37.9766C92.7695 38.1606 93.2012 38.2527 93.6836 38.2527C94.3057 38.2527 94.8325 38.1257 95.2642 37.8718C95.6958 37.6179 96.0735 37.2783 96.3972 36.853L97.4636 37.7004C97.2415 38.0369 96.959 38.3574 96.6162 38.6621C96.2734 38.9668 95.8513 39.2144 95.3499 39.4048C94.8547 39.5952 94.2676 39.6904 93.5884 39.6904ZM101.415 30.8164V39.5H99.6536V29.1978H101.367L101.415 30.8164ZM104.633 29.1406L104.624 30.7783C104.478 30.7466 104.338 30.7275 104.205 30.7212C104.078 30.7085 103.932 30.7021 103.767 30.7021C103.361 30.7021 103.002 30.7656 102.691 30.8926C102.38 31.0195 102.116 31.1973 101.901 31.4258C101.685 31.6543 101.513 31.9272 101.386 32.2446C101.266 32.5557 101.187 32.8984 101.148 33.2729L100.653 33.5586C100.653 32.9365 100.714 32.3525 100.834 31.8066C100.961 31.2607 101.155 30.7783 101.415 30.3594C101.675 29.9341 102.005 29.604 102.405 29.3691C102.812 29.1279 103.294 29.0073 103.853 29.0073C103.979 29.0073 104.125 29.0232 104.291 29.0549C104.456 29.0803 104.57 29.1089 104.633 29.1406ZM108.023 31.3972V39.5H106.261V29.1978H107.928L108.023 31.3972ZM107.604 33.9585L106.871 33.9299C106.877 33.2253 106.982 32.5747 107.185 31.978C107.388 31.375 107.674 30.8513 108.042 30.407C108.41 29.9626 108.848 29.6199 109.356 29.3787C109.87 29.1311 110.438 29.0073 111.06 29.0073C111.568 29.0073 112.025 29.0771 112.431 29.2168C112.838 29.3501 113.184 29.5659 113.469 29.8643C113.761 30.1626 113.983 30.5498 114.136 31.0259C114.288 31.4956 114.364 32.0701 114.364 32.7493V39.5H112.593V32.7302C112.593 32.1907 112.514 31.759 112.355 31.4353C112.197 31.1052 111.965 30.8672 111.66 30.7212C111.355 30.5688 110.981 30.4927 110.537 30.4927C110.099 30.4927 109.699 30.5847 109.337 30.7688C108.981 30.9529 108.674 31.2068 108.413 31.5305C108.159 31.8542 107.959 32.2256 107.813 32.6445C107.674 33.0571 107.604 33.4951 107.604 33.9585ZM121.315 39.6904C120.598 39.6904 119.947 39.5698 119.363 39.3286C118.785 39.0811 118.287 38.7351 117.868 38.2908C117.456 37.8464 117.138 37.3196 116.916 36.7102C116.694 36.1008 116.583 35.4343 116.583 34.7107V34.3108C116.583 33.4729 116.707 32.7271 116.954 32.0732C117.202 31.4131 117.538 30.8545 117.963 30.3975C118.389 29.9404 118.871 29.5945 119.411 29.3596C119.95 29.1248 120.509 29.0073 121.086 29.0073C121.823 29.0073 122.458 29.1343 122.991 29.3882C123.53 29.6421 123.971 29.9976 124.314 30.4546C124.657 30.9053 124.911 31.4385 125.076 32.0542C125.241 32.6636 125.323 33.3301 125.323 34.0537V34.844H117.63V33.4062H123.562V33.2729C123.537 32.8159 123.441 32.3716 123.276 31.9399C123.118 31.5083 122.864 31.1528 122.515 30.8735C122.166 30.5942 121.689 30.4546 121.086 30.4546C120.687 30.4546 120.318 30.5403 119.982 30.7117C119.646 30.8767 119.357 31.1243 119.115 31.4543C118.874 31.7844 118.687 32.1875 118.554 32.6636C118.42 33.1396 118.354 33.6887 118.354 34.3108V34.7107C118.354 35.1995 118.42 35.6597 118.554 36.0913C118.693 36.5166 118.893 36.8911 119.154 37.2148C119.42 37.5386 119.741 37.7925 120.115 37.9766C120.496 38.1606 120.928 38.2527 121.41 38.2527C122.032 38.2527 122.559 38.1257 122.991 37.8718C123.422 37.6179 123.8 37.2783 124.124 36.853L125.19 37.7004C124.968 38.0369 124.686 38.3574 124.343 38.6621C124 38.9668 123.578 39.2144 123.076 39.4048C122.581 39.5952 121.994 39.6904 121.315 39.6904ZM131.693 29.1978V30.5498H126.123V29.1978H131.693ZM128.009 26.6936H129.77V36.9482C129.77 37.2974 129.824 37.5608 129.932 37.7385C130.04 37.9163 130.179 38.0337 130.351 38.0908C130.522 38.1479 130.706 38.1765 130.903 38.1765C131.049 38.1765 131.201 38.1638 131.36 38.1384C131.525 38.1067 131.649 38.0813 131.731 38.0623L131.741 39.5C131.601 39.5444 131.417 39.5857 131.189 39.6238C130.967 39.6682 130.697 39.6904 130.379 39.6904C129.948 39.6904 129.551 39.6047 129.189 39.4333C128.827 39.262 128.539 38.9763 128.323 38.5764C128.113 38.1702 128.009 37.6243 128.009 36.9387V26.6936ZM146.794 25.6367H148.623V35.0154C148.623 36.0564 148.391 36.9229 147.927 37.6147C147.464 38.3066 146.848 38.8271 146.08 39.1763C145.319 39.519 144.49 39.6904 143.595 39.6904C142.656 39.6904 141.805 39.519 141.043 39.1763C140.288 38.8271 139.688 38.3066 139.244 37.6147C138.806 36.9229 138.587 36.0564 138.587 35.0154V25.6367H140.406V35.0154C140.406 35.739 140.539 36.3357 140.805 36.8054C141.072 37.2751 141.443 37.6243 141.919 37.8528C142.402 38.0813 142.96 38.1956 143.595 38.1956C144.236 38.1956 144.795 38.0813 145.271 37.8528C145.753 37.6243 146.128 37.2751 146.395 36.8054C146.661 36.3357 146.794 35.739 146.794 35.0154V25.6367ZM153.002 31.3972V39.5H151.241V29.1978H152.907L153.002 31.3972ZM152.583 33.9585L151.85 33.9299C151.857 33.2253 151.961 32.5747 152.165 31.978C152.368 31.375 152.653 30.8513 153.021 30.407C153.39 29.9626 153.828 29.6199 154.335 29.3787C154.85 29.1311 155.418 29.0073 156.04 29.0073C156.548 29.0073 157.005 29.0771 157.411 29.2168C157.817 29.3501 158.163 29.5659 158.449 29.8643C158.741 30.1626 158.963 30.5498 159.115 31.0259C159.268 31.4956 159.344 32.0701 159.344 32.7493V39.5H157.573V32.7302C157.573 32.1907 157.493 31.759 157.335 31.4353C157.176 31.1052 156.944 30.8672 156.64 30.7212C156.335 30.5688 155.96 30.4927 155.516 30.4927C155.078 30.4927 154.678 30.5847 154.316 30.7688C153.961 30.9529 153.653 31.2068 153.393 31.5305C153.139 31.8542 152.939 32.2256 152.793 32.6445C152.653 33.0571 152.583 33.4951 152.583 33.9585ZM168.094 37.7385V32.4351C168.094 32.0288 168.011 31.6765 167.846 31.3782C167.688 31.0735 167.447 30.8386 167.123 30.6736C166.799 30.5085 166.399 30.426 165.923 30.426C165.479 30.426 165.088 30.5022 164.752 30.6545C164.422 30.8069 164.162 31.0068 163.971 31.2544C163.787 31.502 163.695 31.7686 163.695 32.0542H161.934C161.934 31.686 162.029 31.321 162.219 30.9592C162.41 30.5974 162.683 30.2705 163.038 29.9785C163.4 29.6802 163.832 29.4453 164.333 29.2739C164.841 29.0962 165.406 29.0073 166.028 29.0073C166.777 29.0073 167.437 29.1343 168.008 29.3882C168.586 29.6421 169.037 30.0261 169.36 30.5403C169.69 31.0481 169.855 31.686 169.855 32.4541V37.2529C169.855 37.5957 169.884 37.9607 169.941 38.3479C170.005 38.7351 170.097 39.0684 170.217 39.3477V39.5H168.38C168.291 39.2969 168.221 39.0271 168.17 38.6907C168.119 38.3479 168.094 38.0305 168.094 37.7385ZM168.399 33.2539L168.418 34.4917H166.637C166.136 34.4917 165.688 34.533 165.295 34.6155C164.901 34.6917 164.571 34.8091 164.304 34.9678C164.038 35.1265 163.835 35.3264 163.695 35.5676C163.555 35.8025 163.486 36.0786 163.486 36.396C163.486 36.7197 163.559 37.0149 163.705 37.2815C163.851 37.5481 164.07 37.7607 164.362 37.9194C164.66 38.0718 165.025 38.1479 165.457 38.1479C165.996 38.1479 166.472 38.0337 166.885 37.8052C167.297 37.5767 167.624 37.2974 167.865 36.9673C168.113 36.6372 168.246 36.3167 168.265 36.0056L169.018 36.853C168.973 37.1196 168.853 37.4148 168.656 37.7385C168.459 38.0623 168.196 38.3733 167.865 38.6716C167.542 38.9636 167.155 39.208 166.704 39.4048C166.26 39.5952 165.758 39.6904 165.199 39.6904C164.501 39.6904 163.889 39.554 163.362 39.281C162.841 39.0081 162.435 38.6431 162.143 38.186C161.857 37.7227 161.715 37.2053 161.715 36.634C161.715 36.0818 161.823 35.5962 162.038 35.1772C162.254 34.752 162.565 34.3997 162.971 34.1204C163.378 33.8347 163.866 33.6189 164.438 33.4729C165.009 33.3269 165.647 33.2539 166.352 33.2539H168.399ZM175.606 37.9099L178.425 29.1978H180.224L176.521 39.5H175.34L175.606 37.9099ZM173.255 29.1978L176.159 37.9575L176.359 39.5H175.178L171.446 29.1978H173.255ZM187.842 37.7385V32.4351C187.842 32.0288 187.759 31.6765 187.594 31.3782C187.435 31.0735 187.194 30.8386 186.87 30.6736C186.547 30.5085 186.147 30.426 185.671 30.426C185.226 30.426 184.836 30.5022 184.5 30.6545C184.169 30.8069 183.909 31.0068 183.719 31.2544C183.535 31.502 183.443 31.7686 183.443 32.0542H181.681C181.681 31.686 181.776 31.321 181.967 30.9592C182.157 30.5974 182.43 30.2705 182.786 29.9785C183.147 29.6802 183.579 29.4453 184.081 29.2739C184.588 29.0962 185.153 29.0073 185.775 29.0073C186.524 29.0073 187.185 29.1343 187.756 29.3882C188.333 29.6421 188.784 30.0261 189.108 30.5403C189.438 31.0481 189.603 31.686 189.603 32.4541V37.2529C189.603 37.5957 189.632 37.9607 189.689 38.3479C189.752 38.7351 189.844 39.0684 189.965 39.3477V39.5H188.127C188.038 39.2969 187.969 39.0271 187.918 38.6907C187.867 38.3479 187.842 38.0305 187.842 37.7385ZM188.146 33.2539L188.165 34.4917H186.385C185.883 34.4917 185.436 34.533 185.042 34.6155C184.649 34.6917 184.319 34.8091 184.052 34.9678C183.785 35.1265 183.582 35.3264 183.443 35.5676C183.303 35.8025 183.233 36.0786 183.233 36.396C183.233 36.7197 183.306 37.0149 183.452 37.2815C183.598 37.5481 183.817 37.7607 184.109 37.9194C184.407 38.0718 184.772 38.1479 185.204 38.1479C185.744 38.1479 186.22 38.0337 186.632 37.8052C187.045 37.5767 187.372 37.2974 187.613 36.9673C187.861 36.6372 187.994 36.3167 188.013 36.0056L188.765 36.853C188.721 37.1196 188.6 37.4148 188.403 37.7385C188.207 38.0623 187.943 38.3733 187.613 38.6716C187.289 38.9636 186.902 39.208 186.451 39.4048C186.007 39.5952 185.506 39.6904 184.947 39.6904C184.249 39.6904 183.636 39.554 183.109 39.281C182.589 39.0081 182.183 38.6431 181.891 38.186C181.605 37.7227 181.462 37.2053 181.462 36.634C181.462 36.0818 181.57 35.5962 181.786 35.1772C182.002 34.752 182.313 34.3997 182.719 34.1204C183.125 33.8347 183.614 33.6189 184.185 33.4729C184.757 33.3269 185.395 33.2539 186.099 33.2539H188.146ZM194.288 29.1978V39.5H192.517V29.1978H194.288ZM192.383 26.4651C192.383 26.1794 192.469 25.9382 192.64 25.7415C192.818 25.5447 193.078 25.4463 193.421 25.4463C193.758 25.4463 194.015 25.5447 194.192 25.7415C194.376 25.9382 194.469 26.1794 194.469 26.4651C194.469 26.738 194.376 26.9729 194.192 27.1697C194.015 27.3601 193.758 27.4553 193.421 27.4553C193.078 27.4553 192.818 27.3601 192.64 27.1697C192.469 26.9729 192.383 26.738 192.383 26.4651ZM199.029 24.875V39.5H197.258V24.875H199.029ZM207.932 37.7385V32.4351C207.932 32.0288 207.849 31.6765 207.684 31.3782C207.526 31.0735 207.284 30.8386 206.961 30.6736C206.637 30.5085 206.237 30.426 205.761 30.426C205.317 30.426 204.926 30.5022 204.59 30.6545C204.26 30.8069 204 31.0068 203.809 31.2544C203.625 31.502 203.533 31.7686 203.533 32.0542H201.771C201.771 31.686 201.867 31.321 202.057 30.9592C202.248 30.5974 202.521 30.2705 202.876 29.9785C203.238 29.6802 203.669 29.4453 204.171 29.2739C204.679 29.0962 205.244 29.0073 205.866 29.0073C206.615 29.0073 207.275 29.1343 207.846 29.3882C208.424 29.6421 208.875 30.0261 209.198 30.5403C209.528 31.0481 209.693 31.686 209.693 32.4541V37.2529C209.693 37.5957 209.722 37.9607 209.779 38.3479C209.843 38.7351 209.935 39.0684 210.055 39.3477V39.5H208.218C208.129 39.2969 208.059 39.0271 208.008 38.6907C207.957 38.3479 207.932 38.0305 207.932 37.7385ZM208.237 33.2539L208.256 34.4917H206.475C205.974 34.4917 205.526 34.533 205.133 34.6155C204.739 34.6917 204.409 34.8091 204.142 34.9678C203.876 35.1265 203.673 35.3264 203.533 35.5676C203.393 35.8025 203.323 36.0786 203.323 36.396C203.323 36.7197 203.396 37.0149 203.542 37.2815C203.688 37.5481 203.907 37.7607 204.199 37.9194C204.498 38.0718 204.863 38.1479 205.294 38.1479C205.834 38.1479 206.31 38.0337 206.723 37.8052C207.135 37.5767 207.462 37.2974 207.703 36.9673C207.951 36.6372 208.084 36.3167 208.103 36.0056L208.855 36.853C208.811 37.1196 208.69 37.4148 208.494 37.7385C208.297 38.0623 208.033 38.3733 207.703 38.6716C207.38 38.9636 206.992 39.208 206.542 39.4048C206.097 39.5952 205.596 39.6904 205.037 39.6904C204.339 39.6904 203.727 39.554 203.2 39.281C202.679 39.0081 202.273 38.6431 201.981 38.186C201.695 37.7227 201.552 37.2053 201.552 36.634C201.552 36.0818 201.66 35.5962 201.876 35.1772C202.092 34.752 202.403 34.3997 202.809 34.1204C203.216 33.8347 203.704 33.6189 204.276 33.4729C204.847 33.3269 205.485 33.2539 206.189 33.2539H208.237ZM212.455 24.875H214.226V37.5005L214.073 39.5H212.455V24.875ZM221.186 34.2632V34.4631C221.186 35.2122 221.097 35.9072 220.919 36.5483C220.741 37.1831 220.481 37.7354 220.138 38.2051C219.796 38.6748 219.377 39.0398 218.882 39.3C218.386 39.5603 217.818 39.6904 217.177 39.6904C216.523 39.6904 215.949 39.5793 215.454 39.3572C214.965 39.1287 214.552 38.8018 214.216 38.3765C213.88 37.9512 213.61 37.437 213.407 36.834C213.21 36.231 213.073 35.5518 212.997 34.7964V33.9204C213.073 33.1587 213.21 32.4763 213.407 31.8733C213.61 31.2703 213.88 30.7561 214.216 30.3308C214.552 29.8992 214.965 29.5723 215.454 29.3501C215.943 29.1216 216.511 29.0073 217.158 29.0073C217.806 29.0073 218.38 29.1343 218.882 29.3882C219.383 29.6357 219.802 29.9912 220.138 30.4546C220.481 30.918 220.741 31.4734 220.919 32.1208C221.097 32.762 221.186 33.4761 221.186 34.2632ZM219.415 34.4631V34.2632C219.415 33.749 219.367 33.2666 219.272 32.8159C219.177 32.3589 219.024 31.959 218.815 31.6162C218.605 31.2671 218.329 30.9941 217.987 30.7974C217.644 30.5942 217.222 30.4927 216.72 30.4927C216.276 30.4927 215.889 30.5688 215.559 30.7212C215.235 30.8735 214.959 31.0798 214.73 31.3401C214.502 31.594 214.314 31.886 214.168 32.2161C214.029 32.5398 213.924 32.8762 213.854 33.2253V35.52C213.956 35.9644 214.121 36.3928 214.349 36.8054C214.584 37.2117 214.895 37.5449 215.282 37.8052C215.676 38.0654 216.162 38.1956 216.739 38.1956C217.215 38.1956 217.622 38.1003 217.958 37.9099C218.301 37.7131 218.577 37.4434 218.786 37.1006C219.002 36.7578 219.161 36.3611 219.262 35.9104C219.364 35.4597 219.415 34.9773 219.415 34.4631ZM225.328 24.875V39.5H223.557V24.875H225.328ZM232.431 39.6904C231.713 39.6904 231.063 39.5698 230.479 39.3286C229.901 39.0811 229.403 38.7351 228.984 38.2908C228.571 37.8464 228.254 37.3196 228.032 36.7102C227.81 36.1008 227.698 35.4343 227.698 34.7107V34.3108C227.698 33.4729 227.822 32.7271 228.07 32.0732C228.317 31.4131 228.654 30.8545 229.079 30.3975C229.504 29.9404 229.987 29.5945 230.526 29.3596C231.066 29.1248 231.625 29.0073 232.202 29.0073C232.938 29.0073 233.573 29.1343 234.106 29.3882C234.646 29.6421 235.087 29.9976 235.43 30.4546C235.773 30.9053 236.027 31.4385 236.192 32.0542C236.357 32.6636 236.439 33.3301 236.439 34.0537V34.844H228.746V33.4062H234.678V33.2729C234.652 32.8159 234.557 32.3716 234.392 31.9399C234.233 31.5083 233.979 31.1528 233.63 30.8735C233.281 30.5942 232.805 30.4546 232.202 30.4546C231.802 30.4546 231.434 30.5403 231.098 30.7117C230.761 30.8767 230.472 31.1243 230.231 31.4543C229.99 31.7844 229.803 32.1875 229.669 32.6636C229.536 33.1396 229.469 33.6887 229.469 34.3108V34.7107C229.469 35.1995 229.536 35.6597 229.669 36.0913C229.809 36.5166 230.009 36.8911 230.269 37.2148C230.536 37.5386 230.856 37.7925 231.231 37.9766C231.612 38.1606 232.043 38.2527 232.526 38.2527C233.148 38.2527 233.675 38.1257 234.106 37.8718C234.538 37.6179 234.916 37.2783 235.24 36.853L236.306 37.7004C236.084 38.0369 235.801 38.3574 235.458 38.6621C235.116 38.9668 234.694 39.2144 234.192 39.4048C233.697 39.5952 233.11 39.6904 232.431 39.6904ZM238.524 38.5669C238.524 38.2686 238.616 38.0178 238.801 37.8147C238.991 37.6052 239.264 37.5005 239.619 37.5005C239.975 37.5005 240.245 37.6052 240.429 37.8147C240.619 38.0178 240.714 38.2686 240.714 38.5669C240.714 38.8589 240.619 39.1064 240.429 39.3096C240.245 39.5127 239.975 39.6143 239.619 39.6143C239.264 39.6143 238.991 39.5127 238.801 39.3096C238.616 39.1064 238.524 38.8589 238.524 38.5669Z" fill="#410E0B"/>
<path d="M462.818 35.0654H464.894C464.827 35.8568 464.606 36.5623 464.229 37.1821C463.853 37.7964 463.325 38.2806 462.644 38.6348C461.963 38.9889 461.136 39.166 460.162 39.166C459.415 39.166 458.743 39.0332 458.145 38.7676C457.547 38.4964 457.035 38.1146 456.609 37.6221C456.183 37.124 455.857 36.5236 455.63 35.8208C455.409 35.118 455.298 34.3322 455.298 33.4634V32.459C455.298 31.5902 455.411 30.8044 455.638 30.1016C455.871 29.3988 456.203 28.7983 456.634 28.3003C457.066 27.7967 457.583 27.4121 458.187 27.1465C458.795 26.8809 459.479 26.748 460.237 26.748C461.2 26.748 462.013 26.9251 462.677 27.2793C463.341 27.6335 463.856 28.1232 464.221 28.7485C464.592 29.3739 464.819 30.0905 464.902 30.8984H462.827C462.771 30.3783 462.65 29.9328 462.461 29.562C462.279 29.1912 462.008 28.909 461.648 28.7153C461.288 28.5161 460.818 28.4165 460.237 28.4165C459.761 28.4165 459.346 28.505 458.992 28.6821C458.638 28.8592 458.341 29.1193 458.104 29.4624C457.866 29.8055 457.686 30.2288 457.564 30.7324C457.448 31.2305 457.39 31.8005 457.39 32.4424V33.4634C457.39 34.0721 457.442 34.6255 457.547 35.1235C457.658 35.616 457.824 36.0394 458.045 36.3936C458.272 36.7477 458.56 37.0216 458.909 37.2153C459.257 37.409 459.675 37.5059 460.162 37.5059C460.754 37.5059 461.233 37.4118 461.598 37.2236C461.969 37.0355 462.248 36.7616 462.437 36.4019C462.63 36.0366 462.757 35.5911 462.818 35.0654ZM466.205 34.6089V34.418C466.205 33.7705 466.299 33.1701 466.487 32.6167C466.675 32.0578 466.947 31.5736 467.301 31.1641C467.66 30.749 468.098 30.4281 468.612 30.2012C469.132 29.9688 469.719 29.8525 470.372 29.8525C471.031 29.8525 471.617 29.9688 472.132 30.2012C472.652 30.4281 473.092 30.749 473.452 31.1641C473.811 31.5736 474.085 32.0578 474.273 32.6167C474.462 33.1701 474.556 33.7705 474.556 34.418V34.6089C474.556 35.2563 474.462 35.8568 474.273 36.4102C474.085 36.9635 473.811 37.4478 473.452 37.8628C473.092 38.2723 472.655 38.5933 472.14 38.8257C471.625 39.0526 471.042 39.166 470.389 39.166C469.73 39.166 469.141 39.0526 468.621 38.8257C468.106 38.5933 467.669 38.2723 467.309 37.8628C466.949 37.4478 466.675 36.9635 466.487 36.4102C466.299 35.8568 466.205 35.2563 466.205 34.6089ZM468.206 34.418V34.6089C468.206 35.0129 468.247 35.3947 468.33 35.7544C468.413 36.1141 468.543 36.4295 468.72 36.7007C468.897 36.9718 469.124 37.1849 469.401 37.3398C469.678 37.4948 470.007 37.5723 470.389 37.5723C470.759 37.5723 471.08 37.4948 471.352 37.3398C471.628 37.1849 471.855 36.9718 472.032 36.7007C472.209 36.4295 472.339 36.1141 472.422 35.7544C472.511 35.3947 472.555 35.0129 472.555 34.6089V34.418C472.555 34.0195 472.511 33.6432 472.422 33.2891C472.339 32.9294 472.207 32.6112 472.024 32.3345C471.847 32.0578 471.62 31.842 471.343 31.687C471.072 31.5265 470.748 31.4463 470.372 31.4463C469.996 31.4463 469.669 31.5265 469.393 31.687C469.121 31.842 468.897 32.0578 468.72 32.3345C468.543 32.6112 468.413 32.9294 468.33 33.2891C468.247 33.6432 468.206 34.0195 468.206 34.418ZM478.241 31.7451V42.4531H476.241V30.0186H478.083L478.241 31.7451ZM484.093 34.4263V34.6006C484.093 35.2536 484.016 35.8595 483.861 36.4185C483.711 36.9718 483.487 37.4561 483.188 37.8711C482.895 38.2806 482.533 38.5988 482.101 38.8257C481.669 39.0526 481.171 39.166 480.607 39.166C480.048 39.166 479.558 39.0636 479.138 38.8589C478.723 38.6486 478.371 38.3525 478.083 37.9707C477.796 37.5889 477.563 37.1406 477.386 36.626C477.215 36.1058 477.093 35.5358 477.021 34.916V34.2437C477.093 33.5851 477.215 32.9875 477.386 32.4507C477.563 31.9139 477.796 31.4518 478.083 31.0645C478.371 30.6771 478.723 30.3783 479.138 30.168C479.553 29.9577 480.037 29.8525 480.59 29.8525C481.155 29.8525 481.656 29.9632 482.093 30.1846C482.53 30.4004 482.898 30.7103 483.197 31.1143C483.496 31.5127 483.72 31.9941 483.869 32.5586C484.019 33.1175 484.093 33.7401 484.093 34.4263ZM482.093 34.6006V34.4263C482.093 34.0112 482.054 33.6266 481.977 33.2725C481.899 32.9128 481.777 32.5973 481.611 32.3262C481.445 32.055 481.232 31.8447 480.972 31.6953C480.718 31.5404 480.41 31.4629 480.051 31.4629C479.697 31.4629 479.392 31.5238 479.138 31.6455C478.883 31.7617 478.67 31.925 478.499 32.1353C478.327 32.3455 478.194 32.5918 478.1 32.874C478.006 33.1507 477.94 33.4523 477.901 33.7788V35.3892C477.967 35.7876 478.081 36.1528 478.241 36.4849C478.402 36.8169 478.629 37.0825 478.922 37.2817C479.221 37.4754 479.603 37.5723 480.067 37.5723C480.427 37.5723 480.734 37.4948 480.989 37.3398C481.243 37.1849 481.451 36.9718 481.611 36.7007C481.777 36.424 481.899 36.1058 481.977 35.7461C482.054 35.3864 482.093 35.0046 482.093 34.6006ZM488.302 38.0205L490.742 30.0186H492.884L489.281 40.3696C489.198 40.591 489.09 40.8317 488.958 41.0918C488.825 41.3519 488.65 41.5981 488.435 41.8306C488.224 42.0685 487.961 42.2594 487.646 42.4033C487.331 42.5527 486.949 42.6274 486.5 42.6274C486.323 42.6274 486.152 42.6108 485.986 42.5776C485.825 42.55 485.673 42.5195 485.529 42.4863L485.521 40.959C485.576 40.9645 485.643 40.9701 485.72 40.9756C485.803 40.9811 485.87 40.9839 485.919 40.9839C486.251 40.9839 486.528 40.9424 486.75 40.8594C486.971 40.7819 487.151 40.6546 487.289 40.4775C487.433 40.3005 487.555 40.0625 487.654 39.7637L488.302 38.0205ZM486.924 30.0186L489.057 36.7422L489.414 38.8506L488.028 39.2075L484.766 30.0186H486.924Z" fill="#410E0B"/>
<g clip-path="url(#clip0_42_23)">
<path d="M17.417 45.7499H48.5837L33.0003 18.8333L17.417 45.7499ZM34.417 41.4999H31.5837V38.6666H34.417V41.4999ZM34.417 35.8333H31.5837V30.1666H34.417V35.8333Z" fill="#410E0B"/>
</g>
<defs>
<clipPath id="clip0_42_23">
<rect width="34" height="34" fill="white" transform="translate(16 16)"/>
</clipPath>
</defs>
</svg>
