<svg width="516" height="66" viewBox="0 0 516 66" fill="none" xmlns="http://www.w3.org/2000/svg">
<rect width="516" height="66" fill="#EADDFF"/>
<g clip-path="url(#clip0_42_22)">
<path d="M28.7502 38.9075L22.8427 33L20.8311 34.9975L28.7502 42.9167L45.7502 25.9167L43.7527 23.9192L28.7502 38.9075Z" fill="#21005D"/>
</g>
<path d="M74.4978 35.9961C74.4978 35.6724 74.447 35.3867 74.3455 35.1392C74.2502 34.8853 74.0789 34.6567 73.8313 34.4536C73.5901 34.2505 73.2537 34.0569 72.822 33.8728C72.3967 33.6887 71.8572 33.5015 71.2034 33.311C70.5178 33.1079 69.8989 32.8826 69.3467 32.635C68.7944 32.3811 68.3215 32.0923 67.928 31.7686C67.5344 31.4448 67.2329 31.0735 67.0234 30.6545C66.814 30.2356 66.7092 29.7563 66.7092 29.2168C66.7092 28.6772 66.8203 28.179 67.0425 27.7219C67.2646 27.2649 67.582 26.8682 67.9946 26.5317C68.4136 26.189 68.9119 25.9224 69.4895 25.7319C70.0671 25.5415 70.7114 25.4463 71.4224 25.4463C72.4634 25.4463 73.3457 25.6462 74.0693 26.0461C74.7993 26.4397 75.3547 26.957 75.7356 27.5981C76.1165 28.2329 76.3069 28.9121 76.3069 29.6357H74.4788C74.4788 29.1152 74.3677 28.655 74.1455 28.2551C73.9233 27.8489 73.5869 27.5315 73.1362 27.303C72.6855 27.0681 72.1143 26.9507 71.4224 26.9507C70.7686 26.9507 70.229 27.0491 69.8037 27.2458C69.3784 27.4426 69.061 27.7092 68.8516 28.0457C68.6484 28.3821 68.5469 28.7661 68.5469 29.1978C68.5469 29.4897 68.6072 29.7563 68.7278 29.9976C68.8547 30.2324 69.0483 30.4514 69.3086 30.6545C69.5752 30.8577 69.9116 31.0449 70.3179 31.2163C70.7305 31.3877 71.2224 31.5527 71.7937 31.7114C72.5808 31.9336 73.26 32.1812 73.8313 32.4541C74.4026 32.7271 74.8723 33.0349 75.2405 33.3777C75.615 33.7141 75.8911 34.0981 76.0688 34.5298C76.2529 34.9551 76.345 35.4375 76.345 35.9771C76.345 36.542 76.2307 37.053 76.0022 37.51C75.7737 37.967 75.4468 38.3574 75.0215 38.6812C74.5962 39.0049 74.0852 39.2556 73.4885 39.4333C72.8982 39.6047 72.238 39.6904 71.5081 39.6904C70.8669 39.6904 70.2354 39.6016 69.6133 39.4238C68.9976 39.2461 68.4358 38.9795 67.928 38.624C67.4265 38.2686 67.0234 37.8306 66.7188 37.3101C66.4204 36.7832 66.2712 36.1738 66.2712 35.4819H68.0994C68.0994 35.958 68.1914 36.3674 68.3755 36.7102C68.5596 37.0466 68.8103 37.3259 69.1277 37.5481C69.4514 37.7703 69.8164 37.9353 70.2227 38.0432C70.6353 38.1448 71.0637 38.1956 71.5081 38.1956C72.1492 38.1956 72.6919 38.1067 73.1362 37.929C73.5806 37.7512 73.917 37.4973 74.1455 37.1672C74.3804 36.8372 74.4978 36.4468 74.4978 35.9961ZM84.7239 37.1196V29.1978H86.4949V39.5H84.8096L84.7239 37.1196ZM85.0571 34.9487L85.7903 34.9297C85.7903 35.6152 85.7173 36.25 85.5713 36.834C85.4316 37.4116 85.2031 37.9131 84.8857 38.3384C84.5684 38.7637 84.1526 39.0969 83.6384 39.3381C83.1243 39.573 82.499 39.6904 81.7627 39.6904C81.2612 39.6904 80.801 39.6174 80.3821 39.4714C79.9695 39.3254 79.614 39.1001 79.3157 38.7954C79.0173 38.4907 78.7856 38.094 78.6206 37.6052C78.4619 37.1165 78.3826 36.5293 78.3826 35.8438V29.1978H80.144V35.8628C80.144 36.3262 80.1948 36.7102 80.2964 37.0149C80.4043 37.3132 80.5471 37.5513 80.7249 37.729C80.9089 37.9004 81.1121 38.021 81.3342 38.0908C81.5627 38.1606 81.7976 38.1956 82.0388 38.1956C82.7878 38.1956 83.3813 38.0527 83.8193 37.7671C84.2573 37.4751 84.5715 37.0847 84.762 36.5959C84.9587 36.1008 85.0571 35.5518 85.0571 34.9487ZM93.3027 38.2432C93.7217 38.2432 94.1089 38.1575 94.4644 37.9861C94.8198 37.8147 95.1118 37.5798 95.3403 37.2815C95.5688 36.9768 95.699 36.6309 95.7307 36.2437H97.4065C97.3748 36.853 97.1685 37.4211 96.7876 37.948C96.4131 38.4685 95.9211 38.8906 95.3118 39.2144C94.7024 39.5317 94.0327 39.6904 93.3027 39.6904C92.5283 39.6904 91.8523 39.554 91.2747 39.281C90.7034 39.0081 90.2273 38.6335 89.8464 38.1575C89.4719 37.6814 89.1895 37.1355 88.999 36.5198C88.8149 35.8977 88.7229 35.2407 88.7229 34.5488V34.1489C88.7229 33.457 88.8149 32.8032 88.999 32.1875C89.1895 31.5654 89.4719 31.0164 89.8464 30.5403C90.2273 30.0642 90.7034 29.6897 91.2747 29.4167C91.8523 29.1438 92.5283 29.0073 93.3027 29.0073C94.1089 29.0073 94.8135 29.1724 95.4165 29.5024C96.0195 29.8262 96.4924 30.2705 96.8352 30.8354C97.1843 31.394 97.3748 32.0288 97.4065 32.7397H95.7307C95.699 32.3145 95.5784 31.9304 95.3689 31.5876C95.1658 31.2449 94.8865 30.9719 94.531 30.7688C94.1819 30.5593 93.7725 30.4546 93.3027 30.4546C92.7632 30.4546 92.3093 30.5625 91.9412 30.7783C91.5793 30.9878 91.2905 31.2734 91.0747 31.6353C90.8652 31.9907 90.7129 32.3875 90.6177 32.8254C90.5288 33.2571 90.4844 33.6982 90.4844 34.1489V34.5488C90.4844 34.9995 90.5288 35.4438 90.6177 35.8818C90.7065 36.3198 90.8557 36.7166 91.0652 37.072C91.281 37.4275 91.5698 37.7131 91.9316 37.929C92.2998 38.1384 92.7568 38.2432 93.3027 38.2432ZM103.51 38.2432C103.929 38.2432 104.316 38.1575 104.671 37.9861C105.027 37.8147 105.319 37.5798 105.547 37.2815C105.776 36.9768 105.906 36.6309 105.938 36.2437H107.614C107.582 36.853 107.375 37.4211 106.995 37.948C106.62 38.4685 106.128 38.8906 105.519 39.2144C104.909 39.5317 104.24 39.6904 103.51 39.6904C102.735 39.6904 102.059 39.554 101.482 39.281C100.91 39.0081 100.434 38.6335 100.053 38.1575C99.679 37.6814 99.3965 37.1355 99.2061 36.5198C99.022 35.8977 98.9299 35.2407 98.9299 34.5488V34.1489C98.9299 33.457 99.022 32.8032 99.2061 32.1875C99.3965 31.5654 99.679 31.0164 100.053 30.5403C100.434 30.0642 100.91 29.6897 101.482 29.4167C102.059 29.1438 102.735 29.0073 103.51 29.0073C104.316 29.0073 105.021 29.1724 105.624 29.5024C106.227 29.8262 106.699 30.2705 107.042 30.8354C107.391 31.394 107.582 32.0288 107.614 32.7397H105.938C105.906 32.3145 105.785 31.9304 105.576 31.5876C105.373 31.2449 105.094 30.9719 104.738 30.7688C104.389 30.5593 103.979 30.4546 103.51 30.4546C102.97 30.4546 102.516 30.5625 102.148 30.7783C101.786 30.9878 101.498 31.2734 101.282 31.6353C101.072 31.9907 100.92 32.3875 100.825 32.8254C100.736 33.2571 100.691 33.6982 100.691 34.1489V34.5488C100.691 34.9995 100.736 35.4438 100.825 35.8818C100.914 36.3198 101.063 36.7166 101.272 37.072C101.488 37.4275 101.777 37.7131 102.139 37.929C102.507 38.1384 102.964 38.2432 103.51 38.2432ZM113.869 39.6904C113.152 39.6904 112.501 39.5698 111.917 39.3286C111.34 39.0811 110.841 38.7351 110.422 38.2908C110.01 37.8464 109.692 37.3196 109.47 36.7102C109.248 36.1008 109.137 35.4343 109.137 34.7107V34.3108C109.137 33.4729 109.261 32.7271 109.508 32.0732C109.756 31.4131 110.092 30.8545 110.518 30.3975C110.943 29.9404 111.425 29.5945 111.965 29.3596C112.504 29.1248 113.063 29.0073 113.641 29.0073C114.377 29.0073 115.012 29.1343 115.545 29.3882C116.084 29.6421 116.526 29.9976 116.868 30.4546C117.211 30.9053 117.465 31.4385 117.63 32.0542C117.795 32.6636 117.878 33.3301 117.878 34.0537V34.844H110.184V33.4062H116.116V33.2729C116.091 32.8159 115.996 32.3716 115.831 31.9399C115.672 31.5083 115.418 31.1528 115.069 30.8735C114.72 30.5942 114.244 30.4546 113.641 30.4546C113.241 30.4546 112.873 30.5403 112.536 30.7117C112.2 30.8767 111.911 31.1243 111.67 31.4543C111.428 31.7844 111.241 32.1875 111.108 32.6636C110.975 33.1396 110.908 33.6887 110.908 34.3108V34.7107C110.908 35.1995 110.975 35.6597 111.108 36.0913C111.248 36.5166 111.448 36.8911 111.708 37.2148C111.974 37.5386 112.295 37.7925 112.669 37.9766C113.05 38.1606 113.482 38.2527 113.964 38.2527C114.586 38.2527 115.113 38.1257 115.545 37.8718C115.977 37.6179 116.354 37.2783 116.678 36.853L117.744 37.7004C117.522 38.0369 117.24 38.3574 116.897 38.6621C116.554 38.9668 116.132 39.2144 115.631 39.4048C115.135 39.5952 114.548 39.6904 113.869 39.6904ZM125.933 36.7673C125.933 36.5134 125.876 36.2786 125.761 36.0627C125.654 35.8406 125.428 35.6406 125.085 35.4629C124.749 35.2788 124.241 35.1201 123.562 34.9868C122.991 34.8662 122.473 34.7234 122.01 34.5583C121.553 34.3933 121.163 34.1934 120.839 33.9585C120.521 33.7236 120.277 33.4475 120.106 33.1301C119.934 32.8127 119.849 32.4414 119.849 32.0161C119.849 31.6099 119.938 31.2258 120.115 30.864C120.299 30.5022 120.556 30.1816 120.886 29.9023C121.223 29.623 121.626 29.4041 122.096 29.2454C122.565 29.0867 123.089 29.0073 123.667 29.0073C124.492 29.0073 125.197 29.1533 125.781 29.4453C126.365 29.7373 126.812 30.1277 127.123 30.6165C127.434 31.0989 127.59 31.6353 127.59 32.2256H125.828C125.828 31.9399 125.742 31.6638 125.571 31.3972C125.406 31.1243 125.162 30.8989 124.838 30.7212C124.521 30.5435 124.13 30.4546 123.667 30.4546C123.178 30.4546 122.781 30.5308 122.477 30.6831C122.178 30.8291 121.959 31.0164 121.82 31.2449C121.686 31.4734 121.62 31.7146 121.62 31.9685C121.62 32.1589 121.651 32.3303 121.715 32.4827C121.785 32.6287 121.905 32.7651 122.077 32.8921C122.248 33.0127 122.489 33.127 122.8 33.2349C123.111 33.3428 123.508 33.4507 123.99 33.5586C124.835 33.749 125.53 33.9775 126.076 34.2441C126.622 34.5107 127.028 34.8376 127.294 35.2249C127.561 35.6121 127.694 36.0818 127.694 36.634C127.694 37.0847 127.599 37.4973 127.409 37.8718C127.225 38.2463 126.955 38.5701 126.599 38.843C126.25 39.1096 125.831 39.3191 125.343 39.4714C124.86 39.6174 124.317 39.6904 123.714 39.6904C122.807 39.6904 122.039 39.5286 121.41 39.2048C120.782 38.8811 120.306 38.4622 119.982 37.948C119.658 37.4338 119.496 36.8911 119.496 36.3198H121.267C121.293 36.8022 121.432 37.1863 121.686 37.4719C121.94 37.7512 122.251 37.9512 122.619 38.0718C122.988 38.186 123.353 38.2432 123.714 38.2432C124.197 38.2432 124.6 38.1797 124.924 38.0527C125.254 37.9258 125.504 37.7512 125.676 37.5291C125.847 37.3069 125.933 37.053 125.933 36.7673ZM136.007 36.7673C136.007 36.5134 135.949 36.2786 135.835 36.0627C135.727 35.8406 135.502 35.6406 135.159 35.4629C134.823 35.2788 134.315 35.1201 133.636 34.9868C133.064 34.8662 132.547 34.7234 132.084 34.5583C131.627 34.3933 131.236 34.1934 130.913 33.9585C130.595 33.7236 130.351 33.4475 130.179 33.1301C130.008 32.8127 129.922 32.4414 129.922 32.0161C129.922 31.6099 130.011 31.2258 130.189 30.864C130.373 30.5022 130.63 30.1816 130.96 29.9023C131.297 29.623 131.7 29.4041 132.169 29.2454C132.639 29.0867 133.163 29.0073 133.74 29.0073C134.566 29.0073 135.27 29.1533 135.854 29.4453C136.438 29.7373 136.886 30.1277 137.197 30.6165C137.508 31.0989 137.663 31.6353 137.663 32.2256H135.902C135.902 31.9399 135.816 31.6638 135.645 31.3972C135.48 31.1243 135.235 30.8989 134.912 30.7212C134.594 30.5435 134.204 30.4546 133.74 30.4546C133.252 30.4546 132.855 30.5308 132.55 30.6831C132.252 30.8291 132.033 31.0164 131.893 31.2449C131.76 31.4734 131.693 31.7146 131.693 31.9685C131.693 32.1589 131.725 32.3303 131.789 32.4827C131.858 32.6287 131.979 32.7651 132.15 32.8921C132.322 33.0127 132.563 33.127 132.874 33.2349C133.185 33.3428 133.582 33.4507 134.064 33.5586C134.908 33.749 135.604 33.9775 136.149 34.2441C136.695 34.5107 137.102 34.8376 137.368 35.2249C137.635 35.6121 137.768 36.0818 137.768 36.634C137.768 37.0847 137.673 37.4973 137.482 37.8718C137.298 38.2463 137.029 38.5701 136.673 38.843C136.324 39.1096 135.905 39.3191 135.416 39.4714C134.934 39.6174 134.391 39.6904 133.788 39.6904C132.88 39.6904 132.112 39.5286 131.484 39.2048C130.855 38.8811 130.379 38.4622 130.056 37.948C129.732 37.4338 129.57 36.8911 129.57 36.3198H131.341C131.366 36.8022 131.506 37.1863 131.76 37.4719C132.014 37.7512 132.325 37.9512 132.693 38.0718C133.061 38.186 133.426 38.2432 133.788 38.2432C134.271 38.2432 134.674 38.1797 134.997 38.0527C135.327 37.9258 135.578 37.7512 135.75 37.5291C135.921 37.3069 136.007 37.053 136.007 36.7673ZM142.71 39.5H140.948V28.1123C140.948 27.3696 141.082 26.7444 141.348 26.2366C141.621 25.7224 142.011 25.3352 142.519 25.075C143.027 24.8083 143.63 24.675 144.328 24.675C144.531 24.675 144.735 24.6877 144.938 24.7131C145.147 24.7385 145.35 24.7766 145.547 24.8274L145.452 26.2651C145.319 26.2334 145.166 26.2112 144.995 26.1985C144.83 26.1858 144.665 26.1794 144.5 26.1794C144.125 26.1794 143.802 26.2556 143.529 26.408C143.262 26.554 143.059 26.7698 142.919 27.0554C142.78 27.3411 142.71 27.6934 142.71 28.1123V39.5ZM144.9 29.1978V30.5498H139.32V29.1978H144.9ZM153.164 37.1196V29.1978H154.935V39.5H153.25L153.164 37.1196ZM153.498 34.9487L154.231 34.9297C154.231 35.6152 154.158 36.25 154.012 36.834C153.872 37.4116 153.644 37.9131 153.326 38.3384C153.009 38.7637 152.593 39.0969 152.079 39.3381C151.565 39.573 150.939 39.6904 150.203 39.6904C149.702 39.6904 149.241 39.6174 148.823 39.4714C148.41 39.3254 148.054 39.1001 147.756 38.7954C147.458 38.4907 147.226 38.094 147.061 37.6052C146.902 37.1165 146.823 36.5293 146.823 35.8438V29.1978H148.584V35.8628C148.584 36.3262 148.635 36.7102 148.737 37.0149C148.845 37.3132 148.988 37.5513 149.165 37.729C149.349 37.9004 149.552 38.021 149.775 38.0908C150.003 38.1606 150.238 38.1956 150.479 38.1956C151.228 38.1956 151.822 38.0527 152.26 37.7671C152.698 37.4751 153.012 37.0847 153.202 36.5959C153.399 36.1008 153.498 35.5518 153.498 34.9487ZM159.534 24.875V39.5H157.763V24.875H159.534ZM164.276 24.875V39.5H162.505V24.875H164.276ZM169.998 38.4336L172.864 29.1978H174.75L170.617 41.0901C170.522 41.344 170.395 41.6169 170.236 41.9089C170.084 42.2073 169.887 42.4897 169.646 42.7563C169.405 43.0229 169.113 43.2388 168.77 43.4038C168.434 43.5752 168.031 43.6609 167.561 43.6609C167.421 43.6609 167.243 43.6418 167.028 43.6038C166.812 43.5657 166.659 43.5339 166.571 43.5085L166.561 42.0803C166.612 42.0867 166.691 42.093 166.799 42.0994C166.913 42.1121 166.993 42.1184 167.037 42.1184C167.437 42.1184 167.777 42.0645 168.056 41.9565C168.335 41.855 168.57 41.6804 168.76 41.4329C168.957 41.1917 169.125 40.8584 169.265 40.4331L169.998 38.4336ZM167.894 29.1978L170.57 37.1958L171.027 39.0525L169.76 39.7L165.971 29.1978H167.894ZM189.375 25.6367H191.203V35.0154C191.203 36.0564 190.971 36.9229 190.508 37.6147C190.044 38.3066 189.428 38.8271 188.66 39.1763C187.899 39.519 187.07 39.6904 186.175 39.6904C185.236 39.6904 184.385 39.519 183.624 39.1763C182.868 38.8271 182.268 38.3066 181.824 37.6147C181.386 36.9229 181.167 36.0564 181.167 35.0154V25.6367H182.986V35.0154C182.986 35.739 183.119 36.3357 183.385 36.8054C183.652 37.2751 184.023 37.6243 184.5 37.8528C184.982 38.0813 185.541 38.1956 186.175 38.1956C186.816 38.1956 187.375 38.0813 187.851 37.8528C188.333 37.6243 188.708 37.2751 188.975 36.8054C189.241 36.3357 189.375 35.739 189.375 35.0154V25.6367ZM195.583 31.1782V43.4609H193.812V29.1978H195.43L195.583 31.1782ZM202.524 34.2632V34.4631C202.524 35.2122 202.435 35.9072 202.257 36.5483C202.079 37.1831 201.819 37.7354 201.476 38.2051C201.14 38.6748 200.724 39.0398 200.229 39.3C199.734 39.5603 199.166 39.6904 198.525 39.6904C197.871 39.6904 197.293 39.5825 196.792 39.3667C196.29 39.1509 195.865 38.8367 195.516 38.4241C195.167 38.0115 194.887 37.5164 194.678 36.9387C194.475 36.3611 194.335 35.7104 194.259 34.9868V33.9204C194.335 33.1587 194.478 32.4763 194.688 31.8733C194.897 31.2703 195.173 30.7561 195.516 30.3308C195.865 29.8992 196.287 29.5723 196.782 29.3501C197.277 29.1216 197.849 29.0073 198.496 29.0073C199.144 29.0073 199.718 29.1343 200.219 29.3882C200.721 29.6357 201.143 29.9912 201.486 30.4546C201.829 30.918 202.086 31.4734 202.257 32.1208C202.435 32.762 202.524 33.4761 202.524 34.2632ZM200.753 34.4631V34.2632C200.753 33.749 200.699 33.2666 200.591 32.8159C200.483 32.3589 200.315 31.959 200.086 31.6162C199.864 31.2671 199.578 30.9941 199.229 30.7974C198.88 30.5942 198.464 30.4927 197.982 30.4927C197.538 30.4927 197.15 30.5688 196.82 30.7212C196.497 30.8735 196.22 31.0798 195.992 31.3401C195.763 31.594 195.576 31.886 195.43 32.2161C195.291 32.5398 195.186 32.8762 195.116 33.2253V35.6914C195.243 36.1357 195.421 36.5547 195.649 36.9482C195.878 37.3354 196.182 37.6497 196.563 37.8909C196.944 38.1257 197.423 38.2432 198.001 38.2432C198.477 38.2432 198.886 38.1448 199.229 37.948C199.578 37.7449 199.864 37.4688 200.086 37.1196C200.315 36.7705 200.483 36.3706 200.591 35.9199C200.699 35.4629 200.753 34.9773 200.753 34.4631ZM211.264 37.5005V24.875H213.035V39.5H211.417L211.264 37.5005ZM204.333 34.4631V34.2632C204.333 33.4761 204.428 32.762 204.618 32.1208C204.815 31.4734 205.091 30.918 205.447 30.4546C205.809 29.9912 206.237 29.6357 206.732 29.3882C207.234 29.1343 207.792 29.0073 208.408 29.0073C209.055 29.0073 209.62 29.1216 210.103 29.3501C210.592 29.5723 211.004 29.8992 211.341 30.3308C211.683 30.7561 211.953 31.2703 212.15 31.8733C212.347 32.4763 212.483 33.1587 212.559 33.9204V34.7964C212.49 35.5518 212.353 36.231 212.15 36.834C211.953 37.437 211.683 37.9512 211.341 38.3765C211.004 38.8018 210.592 39.1287 210.103 39.3572C209.614 39.5793 209.043 39.6904 208.389 39.6904C207.786 39.6904 207.234 39.5603 206.732 39.3C206.237 39.0398 205.809 38.6748 205.447 38.2051C205.091 37.7354 204.815 37.1831 204.618 36.5483C204.428 35.9072 204.333 35.2122 204.333 34.4631ZM206.104 34.2632V34.4631C206.104 34.9773 206.155 35.4597 206.256 35.9104C206.364 36.3611 206.529 36.7578 206.751 37.1006C206.973 37.4434 207.256 37.7131 207.599 37.9099C207.941 38.1003 208.351 38.1956 208.827 38.1956C209.411 38.1956 209.89 38.0718 210.265 37.8242C210.646 37.5767 210.95 37.2498 211.179 36.8435C211.407 36.4373 211.585 35.9961 211.712 35.52V33.2253C211.636 32.8762 211.525 32.5398 211.379 32.2161C211.239 31.886 211.055 31.594 210.826 31.3401C210.604 31.0798 210.328 30.8735 209.998 30.7212C209.674 30.5688 209.29 30.4927 208.846 30.4927C208.364 30.4927 207.948 30.5942 207.599 30.7974C207.256 30.9941 206.973 31.2671 206.751 31.6162C206.529 31.959 206.364 32.3589 206.256 32.8159C206.155 33.2666 206.104 33.749 206.104 34.2632ZM221.852 37.7385V32.4351C221.852 32.0288 221.77 31.6765 221.605 31.3782C221.446 31.0735 221.205 30.8386 220.881 30.6736C220.557 30.5085 220.157 30.426 219.681 30.426C219.237 30.426 218.847 30.5022 218.51 30.6545C218.18 30.8069 217.92 31.0068 217.729 31.2544C217.545 31.502 217.453 31.7686 217.453 32.0542H215.692C215.692 31.686 215.787 31.321 215.978 30.9592C216.168 30.5974 216.441 30.2705 216.796 29.9785C217.158 29.6802 217.59 29.4453 218.091 29.2739C218.599 29.0962 219.164 29.0073 219.786 29.0073C220.535 29.0073 221.195 29.1343 221.767 29.3882C222.344 29.6421 222.795 30.0261 223.119 30.5403C223.449 31.0481 223.614 31.686 223.614 32.4541V37.2529C223.614 37.5957 223.642 37.9607 223.699 38.3479C223.763 38.7351 223.855 39.0684 223.976 39.3477V39.5H222.138C222.049 39.2969 221.979 39.0271 221.928 38.6907C221.878 38.3479 221.852 38.0305 221.852 37.7385ZM222.157 33.2539L222.176 34.4917H220.396C219.894 34.4917 219.447 34.533 219.053 34.6155C218.659 34.6917 218.329 34.8091 218.063 34.9678C217.796 35.1265 217.593 35.3264 217.453 35.5676C217.314 35.8025 217.244 36.0786 217.244 36.396C217.244 36.7197 217.317 37.0149 217.463 37.2815C217.609 37.5481 217.828 37.7607 218.12 37.9194C218.418 38.0718 218.783 38.1479 219.215 38.1479C219.754 38.1479 220.23 38.0337 220.643 37.8052C221.056 37.5767 221.383 37.2974 221.624 36.9673C221.871 36.6372 222.005 36.3167 222.024 36.0056L222.776 36.853C222.731 37.1196 222.611 37.4148 222.414 37.7385C222.217 38.0623 221.954 38.3733 221.624 38.6716C221.3 38.9636 220.913 39.208 220.462 39.4048C220.018 39.5952 219.516 39.6904 218.958 39.6904C218.26 39.6904 217.647 39.554 217.12 39.281C216.6 39.0081 216.193 38.6431 215.901 38.186C215.616 37.7227 215.473 37.2053 215.473 36.634C215.473 36.0818 215.581 35.5962 215.797 35.1772C216.012 34.752 216.323 34.3997 216.73 34.1204C217.136 33.8347 217.625 33.6189 218.196 33.4729C218.767 33.3269 219.405 33.2539 220.11 33.2539H222.157ZM230.698 29.1978V30.5498H225.128V29.1978H230.698ZM227.013 26.6936H228.774V36.9482C228.774 37.2974 228.828 37.5608 228.936 37.7385C229.044 37.9163 229.184 38.0337 229.355 38.0908C229.527 38.1479 229.711 38.1765 229.907 38.1765C230.053 38.1765 230.206 38.1638 230.365 38.1384C230.53 38.1067 230.653 38.0813 230.736 38.0623L230.745 39.5C230.606 39.5444 230.422 39.5857 230.193 39.6238C229.971 39.6682 229.701 39.6904 229.384 39.6904C228.952 39.6904 228.555 39.6047 228.194 39.4333C227.832 39.262 227.543 38.9763 227.327 38.5764C227.118 38.1702 227.013 37.6243 227.013 36.9387V26.6936ZM237.039 39.6904C236.322 39.6904 235.671 39.5698 235.087 39.3286C234.51 39.0811 234.011 38.7351 233.592 38.2908C233.18 37.8464 232.862 37.3196 232.64 36.7102C232.418 36.1008 232.307 35.4343 232.307 34.7107V34.3108C232.307 33.4729 232.431 32.7271 232.678 32.0732C232.926 31.4131 233.262 30.8545 233.688 30.3975C234.113 29.9404 234.595 29.5945 235.135 29.3596C235.674 29.1248 236.233 29.0073 236.811 29.0073C237.547 29.0073 238.182 29.1343 238.715 29.3882C239.254 29.6421 239.696 29.9976 240.038 30.4546C240.381 30.9053 240.635 31.4385 240.8 32.0542C240.965 32.6636 241.048 33.3301 241.048 34.0537V34.844H233.354V33.4062H239.286V33.2729C239.261 32.8159 239.166 32.3716 239 31.9399C238.842 31.5083 238.588 31.1528 238.239 30.8735C237.89 30.5942 237.414 30.4546 236.811 30.4546C236.411 30.4546 236.042 30.5403 235.706 30.7117C235.37 30.8767 235.081 31.1243 234.84 31.4543C234.598 31.7844 234.411 32.1875 234.278 32.6636C234.145 33.1396 234.078 33.6887 234.078 34.3108V34.7107C234.078 35.1995 234.145 35.6597 234.278 36.0913C234.417 36.5166 234.617 36.8911 234.878 37.2148C235.144 37.5386 235.465 37.7925 235.839 37.9766C236.22 38.1606 236.652 38.2527 237.134 38.2527C237.756 38.2527 238.283 38.1257 238.715 37.8718C239.146 37.6179 239.524 37.2783 239.848 36.853L240.914 37.7004C240.692 38.0369 240.41 38.3574 240.067 38.6621C239.724 38.9668 239.302 39.2144 238.801 39.4048C238.305 39.5952 237.718 39.6904 237.039 39.6904ZM249.598 37.5005V24.875H251.369V39.5H249.75L249.598 37.5005ZM242.666 34.4631V34.2632C242.666 33.4761 242.761 32.762 242.952 32.1208C243.149 31.4734 243.425 30.918 243.78 30.4546C244.142 29.9912 244.571 29.6357 245.066 29.3882C245.567 29.1343 246.126 29.0073 246.741 29.0073C247.389 29.0073 247.954 29.1216 248.436 29.3501C248.925 29.5723 249.338 29.8992 249.674 30.3308C250.017 30.7561 250.287 31.2703 250.483 31.8733C250.68 32.4763 250.817 33.1587 250.893 33.9204V34.7964C250.823 35.5518 250.687 36.231 250.483 36.834C250.287 37.437 250.017 37.9512 249.674 38.3765C249.338 38.8018 248.925 39.1287 248.436 39.3572C247.948 39.5793 247.376 39.6904 246.722 39.6904C246.119 39.6904 245.567 39.5603 245.066 39.3C244.571 39.0398 244.142 38.6748 243.78 38.2051C243.425 37.7354 243.149 37.1831 242.952 36.5483C242.761 35.9072 242.666 35.2122 242.666 34.4631ZM244.437 34.2632V34.4631C244.437 34.9773 244.488 35.4597 244.59 35.9104C244.698 36.3611 244.863 36.7578 245.085 37.1006C245.307 37.4434 245.589 37.7131 245.932 37.9099C246.275 38.1003 246.684 38.1956 247.16 38.1956C247.744 38.1956 248.224 38.0718 248.598 37.8242C248.979 37.5767 249.284 37.2498 249.512 36.8435C249.741 36.4373 249.918 35.9961 250.045 35.52V33.2253C249.969 32.8762 249.858 32.5398 249.712 32.2161C249.573 31.886 249.388 31.594 249.16 31.3401C248.938 31.0798 248.662 30.8735 248.332 30.7212C248.008 30.5688 247.624 30.4927 247.179 30.4927C246.697 30.4927 246.281 30.5942 245.932 30.7974C245.589 30.9941 245.307 31.2671 245.085 31.6162C244.863 31.959 244.698 32.3589 244.59 32.8159C244.488 33.2666 244.437 33.749 244.437 34.2632ZM254.14 38.5669C254.14 38.2686 254.232 38.0178 254.416 37.8147C254.606 37.6052 254.879 37.5005 255.235 37.5005C255.59 37.5005 255.86 37.6052 256.044 37.8147C256.234 38.0178 256.33 38.2686 256.33 38.5669C256.33 38.8589 256.234 39.1064 256.044 39.3096C255.86 39.5127 255.59 39.6143 255.235 39.6143C254.879 39.6143 254.606 39.5127 254.416 39.3096C254.232 39.1064 254.14 38.8589 254.14 38.5669Z" fill="#21005D"/>
<defs>
<clipPath id="clip0_42_22">
<rect width="34" height="34" fill="white" transform="translate(16 16)"/>
</clipPath>
</defs>
</svg>
